<?xml version="1.0" standalone="no"?>
<!DOCTYPE svg PUBLIC "-//W3C//DTD SVG 20010904//EN"
 "http://www.w3.org/TR/2001/REC-SVG-20010904/DTD/svg10.dtd">
<svg version="1.0" xmlns="http://www.w3.org/2000/svg"
 width="225.000000pt" height="225.000000pt" viewBox="0 0 225.000000 225.000000"
 preserveAspectRatio="xMidYMid meet">

<g transform="translate(0.000000,225.000000) scale(0.100000,-0.100000)"
fill="#000000" stroke="none">
<path d="M0 1125 l0 -1125 1125 0 1125 0 0 1125 0 1125 -1125 0 -1125 0 0
-1125z m1362 736 c118 -38 211 -123 238 -219 6 -23 10 -219 10 -513 0 -538 -1
-543 -71 -623 -84 -95 -207 -136 -409 -136 -202 0 -326 41 -411 138 -59 67
-72 123 -67 295 4 161 16 202 84 276 48 53 80 70 262 133 293 101 325 117 358
180 18 35 18 141 -1 177 -20 39 -69 78 -113 91 -20 5 -75 10 -122 10 -136 -1
-194 -38 -221 -143 l-11 -47 -119 0 -119 0 0 68 c1 114 44 197 134 255 105 70
185 87 376 83 104 -3 150 -9 202 -25z"/>
<path d="M1347 1095 c-10 -7 -92 -39 -181 -70 -228 -79 -270 -118 -269 -245 0
-140 63 -193 228 -194 105 -1 174 20 204 62 35 50 42 100 39 284 -3 168 -4
176 -21 163z"/>
</g>
</svg>
